General
Unique ID                                : 323543496709096448612556885452817765616 (0xF36835FB13B2E4DF7CF6172D16D914F0)
Complete name                            : Crystal Kay - Shiawase tte. [WEB-DL 1080p AAC x264-SEKAI].mkv
Format                                   : Matroska
Format version                           : Version 4
File size                                : 214 MiB
Duration                                 : 4 min 23 s
Overall bit rate                         : 6 804 kb/s
Frame rate                               : 23.976 FPS
Title                                    : Crystal Kay - Shiawase tte. [WEB-DL 1080p AAC x264-SEKAI]
Encoded date                             : 2025-08-12 05:15:32 UTC
Writing application                      : mkvmerge 94.0 ('Initiate') 64-bit
Writing library                          : libebml v1.4.5 + libmatroska v1.7.1
Website                                  : https://sekai-archivist.blogspot.com/

Video
ID                                       : 1
Format                                   : AVC
Format/Info                              : Advanced Video Codec
Format profile                           : High@L4
Format settings                          : CABAC / 4 Ref Frames
Format settings, CABAC                   : Yes
Format settings, Reference frames        : 4 frames
Format settings, Slice count             : 8 slices per frame
Codec ID                                 : V_MPEG4/ISO/AVC
Duration                                 : 4 min 23 s
Bit rate                                 : 6 546 kb/s
Width                                    : 1 912 pixels
Height                                   : 1 072 pixels
Display aspect ratio                     : 16:9
Frame rate mode                          : Constant
Frame rate                               : 23.976 (24000/1001) FPS
Color space                              : YUV
Chroma subsampling                       : 4:2:0 (Type 2)
Bit depth                                : 8 bits
Scan type                                : Progressive
Bits/(Pixel*Frame)                       : 0.133
Stream size                              : 205 MiB (96%)
Language                                 : Japanese
Default                                  : Yes
Forced                                   : No
Color range                              : Limited
Color primaries                          : BT.709
Transfer characteristics                 : BT.709
Matrix coefficients                      : BT.709

Audio
ID                                       : 2
Format                                   : AAC LC
Format/Info                              : Advanced Audio Codec Low Complexity
Codec ID                                 : A_AAC-2
Duration                                 : 4 min 23 s
Bit rate                                 : 257 kb/s
Channel(s)                               : 2 channels
Channel layout                           : L R
Sampling rate                            : 48.0 kHz
Frame rate                               : 46.875 FPS (1024 SPF)
Compression mode                         : Lossy
Stream size                              : 8.06 MiB (4%)
Language                                 : Japanese
Default                                  : Yes
Forced                                   : No


